<svg xmlns="http://www.w3.org/2000/svg" xmlns:xlink="http://www.w3.org/1999/xlink" width="1080" zoomAndPan="magnify" viewBox="0 0 810 809.999993" height="1080" preserveAspectRatio="xMidYMid meet" version="1.0"><defs><clipPath id="8ef72d58dd"><path d="M 243 308.773438 L 567 308.773438 L 567 484.273438 L 243 484.273438 Z M 243 308.773438 " clip-rule="nonzero"/></clipPath></defs><g clip-path="url(#8ef72d58dd)"><path fill="#a6a6a6" d="M 405 308.773438 C 361.210938 308.773438 321.507812 317.941406 292.1875 333.25 C 262.863281 348.554688 243.128906 370.609375 243.128906 396.453125 C 243.128906 422.300781 262.863281 444.351562 292.1875 459.65625 C 321.507812 474.964844 361.210938 484.132812 405 484.132812 C 448.789062 484.132812 488.492188 474.964844 517.8125 459.65625 C 547.136719 444.351562 566.871094 422.300781 566.871094 396.453125 C 566.871094 370.609375 547.136719 348.554688 517.8125 333.25 C 488.492188 317.941406 448.789062 308.773438 405 308.773438 Z M 405 322.261719 C 446.890625 322.261719 484.75 331.195312 511.570312 345.210938 C 538.390625 359.199219 553.382812 377.589844 553.382812 396.453125 C 553.382812 415.316406 538.390625 433.707031 511.570312 447.695312 C 484.75 461.714844 446.890625 470.644531 405 470.644531 C 363.109375 470.644531 325.25 461.714844 298.429688 447.695312 C 271.609375 433.707031 256.617188 415.316406 256.617188 396.453125 C 256.617188 377.589844 271.609375 359.199219 298.429688 345.210938 C 325.25 331.195312 363.109375 322.261719 405 322.261719 Z M 388.191406 335.753906 L 371.277344 416.6875 L 388.980469 416.6875 L 397.519531 376.21875 L 411.664062 376.21875 C 416.171875 376.21875 419.175781 376.957031 420.570312 378.460938 C 421.941406 379.960938 422.230469 382.804688 421.441406 386.890625 L 414.984375 416.6875 L 432.953125 416.6875 L 439.960938 384.464844 C 441.464844 376.746094 440.328125 371.082031 436.589844 367.632812 C 432.769531 364.128906 426.050781 362.730469 416.039062 362.730469 L 400.257812 362.730469 L 405.871094 335.753906 Z M 310.574219 362.730469 L 296.902344 436.921875 L 314.738281 436.921875 L 318.296875 416.6875 L 329.414062 416.6875 C 352.648438 416.6875 365.296875 411.3125 370.011719 391.367188 C 374.070312 374.21875 363.6875 362.730469 346.539062 362.730469 Z M 452.210938 362.730469 L 438.539062 436.921875 L 456.375 436.921875 L 459.929688 416.6875 L 471.050781 416.6875 C 494.285156 416.6875 506.933594 411.3125 511.648438 391.367188 C 515.707031 374.21875 505.324219 362.730469 488.175781 362.730469 Z M 325.910156 376.21875 L 339.792969 376.21875 C 351.332031 376.21875 353.757812 381.410156 353.152344 387.179688 C 351.597656 402.066406 342.324219 403.199219 332.363281 403.199219 L 320.796875 403.199219 Z M 467.546875 376.21875 L 481.429688 376.21875 C 492.96875 376.21875 495.394531 381.410156 494.789062 387.179688 C 493.234375 402.066406 483.960938 403.199219 474 403.199219 L 462.433594 403.199219 Z M 467.546875 376.21875 " fill-opacity="1" fill-rule="nonzero"/></g></svg>